<svg width="24" height="24" viewBox="0 0 24 24" fill="none" xmlns="http://www.w3.org/2000/svg">
<g clip-path="url(#clip0_0_597)">
<mask id="mask0_0_597" style="mask-type:luminance" maskUnits="userSpaceOnUse" x="3" y="2" width="6" height="7">
<path d="M8.78185 2.13528H3.58887V8.77524H8.78185V2.13528Z" fill="white"/>
</mask>
<g mask="url(#mask0_0_597)">
<path d="M4.32071 8.65495C4.75179 6.1512 6.28562 4.02801 8.39088 2.78615" stroke="#FF0033" stroke-width="1.50376" stroke-miterlimit="10"/>
</g>
<mask id="mask1_0_597" style="mask-type:luminance" maskUnits="userSpaceOnUse" x="15" y="2" width="6" height="7">
<path d="M20.4509 2.13518H15.258V8.77514H20.4509V2.13518Z" fill="white"/>
</mask>
<g mask="url(#mask1_0_597)">
<path d="M19.7091 8.65484C19.278 6.15109 17.7442 4.0279 15.6389 2.78604" stroke="#FF0033" stroke-width="1.50376" stroke-miterlimit="10"/>
</g>
<mask id="mask2_0_597" style="mask-type:luminance" maskUnits="userSpaceOnUse" x="8" y="12" width="9" height="9">
<path d="M13.3734 20.1648L16.4722 16.0009L11.1387 12.0399L8.03993 16.2039L13.3734 20.1648Z" fill="white"/>
</mask>
<g mask="url(#mask2_0_597)">
<path d="M8.57882 15.6806C10.8472 16.8285 13.4679 16.8652 15.7217 15.9179" stroke="#FF0033" stroke-width="1.50376" stroke-miterlimit="10"/>
</g>
<path d="M5.60384 15.3749C4.76174 15.3749 4.07001 14.6839 4.07001 13.8426C4.07001 13.0014 4.76174 12.3103 5.60384 12.3103C6.44595 12.3103 7.13768 13.0014 7.13768 13.8426C7.13768 14.6839 6.44595 15.3749 5.60384 15.3749Z" fill="#FFB81E"/>
<path d="M5.60386 13.0715C6.03494 13.0715 6.38581 13.422 6.38581 13.8526C6.38581 14.2833 6.03494 14.6338 5.60386 14.6338C5.17278 14.6338 4.82191 14.2833 4.82191 13.8526C4.82191 13.422 5.17278 13.0715 5.60386 13.0715ZM5.60386 11.5692C4.3407 11.5692 3.31815 12.5907 3.31815 13.8526C3.31815 15.1145 4.3407 16.1361 5.60386 16.1361C6.86702 16.1361 7.88957 15.1145 7.88957 13.8526C7.88957 12.5907 6.86702 11.5692 5.60386 11.5692Z" fill="#FF0033"/>
<path d="M2.77679 21.2738V20.3824C2.77679 18.8201 4.04998 17.5482 5.61389 17.5482C7.1778 17.5482 8.45098 18.8201 8.45098 20.3824V21.2738H2.77679Z" fill="#FFB81E"/>
<path d="M5.61387 18.2993C6.76676 18.2993 7.69909 19.2307 7.69909 20.3824V20.5226H3.52866V20.3824C3.52866 19.2307 4.46099 18.2993 5.61387 18.2993ZM5.61387 16.7971C3.62891 16.7971 2.0249 18.3995 2.0249 20.3824V21.3739C2.0249 21.7345 2.31563 22.0249 2.67653 22.0249H8.55122C8.91212 22.0249 9.20285 21.7345 9.20285 21.3739V20.3824C9.20285 18.3995 7.59884 16.7971 5.61387 16.7971Z" fill="#FF0033"/>
<path d="M18.4259 15.3749C17.5838 15.3749 16.8921 14.6839 16.8921 13.8426C16.8921 13.0014 17.5838 12.3103 18.4259 12.3103C19.268 12.3103 19.9597 13.0014 19.9597 13.8426C19.9597 14.6839 19.268 15.3749 18.4259 15.3749Z" fill="#FFB81E"/>
<path d="M18.4259 13.0715C18.857 13.0715 19.2079 13.422 19.2079 13.8526C19.2079 14.2833 18.857 14.6338 18.4259 14.6338C17.9948 14.6338 17.644 14.2833 17.644 13.8526C17.644 13.422 17.9948 13.0715 18.4259 13.0715ZM18.4259 11.5692C17.1628 11.5692 16.1402 12.5907 16.1402 13.8526C16.1402 15.1145 17.1628 16.1361 18.4259 16.1361C19.6891 16.1361 20.7116 15.1145 20.7116 13.8526C20.7116 12.5907 19.6891 11.5692 18.4259 11.5692Z" fill="#FF0033"/>
<path d="M15.5988 21.2738V20.3824C15.5988 18.8201 16.872 17.5482 18.4359 17.5482C19.9998 17.5482 21.273 18.8201 21.273 20.3824V21.2738H15.5988Z" fill="#FFB81E"/>
<path d="M18.4359 18.2993C19.5888 18.2993 20.5211 19.2307 20.5211 20.3824V20.5226H16.3507V20.3824C16.3507 19.2307 17.283 18.2993 18.4359 18.2993ZM18.4359 16.7971C16.451 16.7971 14.847 18.3995 14.847 20.3824V21.3739C14.847 21.7345 15.1377 22.0249 15.4986 22.0249H21.3733C21.7342 22.0249 22.0249 21.7345 22.0249 21.3739V20.3824C22.0249 18.3995 20.4209 16.7971 18.4359 16.7971Z" fill="#FF0033"/>
<path d="M12.0099 5.84063C11.1678 5.84063 10.476 5.14959 10.476 4.30833C10.476 3.46707 11.1678 2.77603 12.0099 2.77603C12.852 2.77603 13.5437 3.46707 13.5437 4.30833C13.5437 5.14959 12.852 5.84063 12.0099 5.84063Z" fill="#FFB81E"/>
<path d="M12.0099 3.52716C12.4409 3.52716 12.7918 3.87768 12.7918 4.30833C12.7918 4.73897 12.4409 5.0895 12.0099 5.0895C11.5788 5.0895 11.2279 4.73897 11.2279 4.30833C11.2279 3.87768 11.5788 3.52716 12.0099 3.52716ZM12.0099 2.0249C10.7467 2.0249 9.72415 3.04643 9.72415 4.30833C9.72415 5.57022 10.7467 6.59175 12.0099 6.59175C13.273 6.59175 14.2956 5.57022 14.2956 4.30833C14.2956 3.04643 13.273 2.0249 12.0099 2.0249Z" fill="#FF0033"/>
<path d="M9.1828 11.7295V10.8381C9.1828 9.27578 10.456 8.00388 12.0199 8.00388C13.5838 8.00388 14.857 9.27578 14.857 10.8381V11.7295H9.1828Z" fill="#FFB81E"/>
<path d="M12.0199 8.755C13.1728 8.755 14.1051 9.6864 14.1051 10.8381V10.9783H9.93467V10.8381C9.93467 9.6864 10.867 8.755 12.0199 8.755ZM12.0199 7.25275C10.0349 7.25275 8.43091 8.85515 8.43091 10.8381V11.8296C8.43091 12.1902 8.72164 12.4806 9.08254 12.4806H14.9572C15.3181 12.4806 15.6089 12.1902 15.6089 11.8296V10.8381C15.6089 8.85515 14.0048 7.25275 12.0199 7.25275Z" fill="#FF0033"/>
</g>
<defs>
<clipPath id="clip0_0_597">
<rect width="20" height="20" fill="white" transform="translate(2.0249 2.0249)"/>
</clipPath>
</defs>
</svg>
