<svg width="24" height="24" viewBox="0 0 24 24" fill="none" xmlns="http://www.w3.org/2000/svg">
<g clip-path="url(#clip0_0_579)">
<path d="M12 21.2485C17.1078 21.2485 21.2485 17.1078 21.2485 12C21.2485 6.89223 17.1078 2.75154 12 2.75154C6.89222 2.75154 2.75153 6.89223 2.75153 12C2.75153 17.1078 6.89222 21.2485 12 21.2485Z" fill="#FFB81E" stroke="#FF0033" stroke-width="1.50301" stroke-miterlimit="10"/>
<path d="M11.7295 6.87979V12.5111C11.7295 12.904 12.048 13.2225 12.4409 13.2225H12.5211C12.914 13.2225 13.2325 12.904 13.2325 12.5111V6.87979C13.2325 6.48688 12.914 6.16837 12.5211 6.16837H12.4409C12.048 6.16837 11.7295 6.48688 11.7295 6.87979Z" fill="#FF0033"/>
<path d="M11.9497 12.2195L9.84536 14.3238C9.55188 14.6173 9.55188 15.0931 9.84536 15.3866C10.1388 15.6801 10.6147 15.6801 10.9081 15.3866L13.0125 13.2823C13.3059 12.9888 13.3059 12.5129 13.0125 12.2195C12.719 11.926 12.2432 11.926 11.9497 12.2195Z" fill="#FF0033"/>
</g>
<defs>
<clipPath id="clip0_0_579">
<rect width="20" height="20" fill="white" transform="translate(2 2.00002)"/>
</clipPath>
</defs>
</svg>
