<svg width="24" height="24" viewBox="0 0 24 24" fill="none" xmlns="http://www.w3.org/2000/svg">
<g clip-path="url(#clip0_0_606)">
<path d="M14.3525 21.2505H9.63776L10.2784 15.9232H13.7118L14.3525 21.2505Z" fill="#FFB81E" stroke="#FF0033" stroke-width="1.49925" stroke-miterlimit="10"/>
<path d="M7.23535 21.2505H16.7649" stroke="#FF0033" stroke-width="1.49925" stroke-miterlimit="10" stroke-linecap="round"/>
<path d="M19.6678 2.74976H4.33244C3.45895 2.74976 2.75085 3.45679 2.75085 4.32897V15.4934C2.75085 16.3656 3.45895 17.0726 4.33244 17.0726H19.6678C20.5413 17.0726 21.2494 16.3656 21.2494 15.4934V4.32897C21.2494 3.45679 20.5413 2.74976 19.6678 2.74976Z" fill="#FFB81E" stroke="#FF0033" stroke-width="1.49925" stroke-miterlimit="10"/>
<path d="M3.30139 13.7942H20.6988" stroke="#FF0033" stroke-width="1.49925" stroke-miterlimit="10" stroke-linecap="round"/>
<path d="M12.0006 8.6068C11.0396 8.6068 10.2488 7.82719 10.2488 6.85768C10.2488 5.88816 11.0296 5.10855 12.0006 5.10855C12.9716 5.10855 13.7523 5.88816 13.7523 6.85768C13.7523 7.82719 12.9716 8.6068 12.0006 8.6068Z" fill="#FFB81E"/>
<path d="M12.0005 5.85817C12.5511 5.85817 13.0016 6.30794 13.0016 6.85767C13.0016 7.40739 12.5511 7.85717 12.0005 7.85717C11.45 7.85717 10.9995 7.40739 10.9995 6.85767C10.9995 6.30794 11.45 5.85817 12.0005 5.85817ZM12.0005 4.35892C10.6192 4.35892 9.49805 5.47836 9.49805 6.85767C9.49805 8.23698 10.6192 9.35642 12.0005 9.35642C13.3819 9.35642 14.5031 8.23698 14.5031 6.85767C14.5031 5.47836 13.3819 4.35892 12.0005 4.35892Z" fill="#FF0033"/>
<path d="M8.81696 13.7542V13.6343C8.81696 11.8852 10.2384 10.4659 11.9901 10.4659C13.7419 10.4659 15.1633 11.8852 15.1633 13.6343V13.7542H8.80695H8.81696Z" fill="#FFB81E"/>
<path d="M12.0001 11.2055C13.1212 11.2055 14.0622 11.9651 14.3424 13.0046H9.65775C9.93803 11.9751 10.879 11.2055 12.0001 11.2055ZM12.0001 9.70627C9.82792 9.70627 8.07617 11.4654 8.07617 13.6243V14.4939H15.934V13.6243C15.934 11.4554 14.1723 9.70627 12.0101 9.70627H12.0001Z" fill="#FF0033"/>
</g>
<defs>
<clipPath id="clip0_0_606">
<rect width="20" height="20" fill="white" transform="translate(2 2)"/>
</clipPath>
</defs>
</svg>
