<svg width="24" height="24" viewBox="0 0 24 24" fill="none" xmlns="http://www.w3.org/2000/svg">
<g clip-path="url(#clip0_0_543)">
<path d="M6.20199 12.5244C5.14146 12.5244 4.27103 11.6639 4.27103 10.5934C4.27103 9.52288 5.13146 8.66245 6.20199 8.66245C7.27253 8.66245 8.13296 9.52288 8.13296 10.5934C8.13296 11.6639 7.27253 12.5244 6.20199 12.5244Z" fill="#FFB81E"/>
<path d="M6.20197 9.4128C6.8523 9.4128 7.38256 9.94306 7.38256 10.5934C7.38256 11.2437 6.8523 11.774 6.20197 11.774C5.55165 11.774 5.02138 11.2437 5.02138 10.5934C5.02138 9.94306 5.55165 9.4128 6.20197 9.4128ZM6.20197 7.91205C4.72123 7.91205 3.52063 9.11265 3.52063 10.5934C3.52063 12.0741 4.72123 13.2747 6.20197 13.2747C7.68271 13.2747 8.88331 12.0741 8.88331 10.5934C8.88331 9.11265 7.68271 7.91205 6.20197 7.91205Z" fill="#FF0033"/>
<path d="M2.76027 19.4378V18.2572C2.75027 16.3563 4.30104 14.8055 6.20199 14.8055C8.10294 14.8055 9.65372 16.3563 9.65372 18.2572V19.4278H9.64371L2.76027 19.4378Z" fill="#FFB81E"/>
<path d="M6.20198 15.5459C7.69272 15.5459 8.90333 16.7565 8.90333 18.2472V18.6775H3.50063V18.2472C3.50063 16.7565 4.71123 15.5459 6.20198 15.5459ZM6.20198 14.0451C3.88082 14.0451 1.99988 15.9261 1.99988 18.2472V19.4178C1.99988 19.838 2.34005 20.1782 2.76026 20.1782H9.6437C10.0639 20.1782 10.4041 19.838 10.4041 19.4178V18.2472C10.4041 15.9261 8.52314 14.0451 6.20198 14.0451Z" fill="#FF0033"/>
<path d="M17.7878 12.5244C16.7272 12.5244 15.8568 11.6639 15.8568 10.5934C15.8568 9.52288 16.7172 8.66245 17.7878 8.66245C18.8583 8.66245 19.7187 9.52288 19.7187 10.5934C19.7187 11.6639 18.8583 12.5244 17.7878 12.5244Z" fill="#FFB81E"/>
<path d="M17.7878 9.4128C18.4381 9.4128 18.9684 9.94306 18.9684 10.5934C18.9684 11.2437 18.4381 11.774 17.7878 11.774C17.1375 11.774 16.6072 11.2437 16.6072 10.5934C16.6072 9.94306 17.1375 9.4128 17.7878 9.4128ZM17.7878 7.91205C16.307 7.91205 15.1064 9.11265 15.1064 10.5934C15.1064 12.0741 16.307 13.2747 17.7878 13.2747C19.2685 13.2747 20.4691 12.0741 20.4691 10.5934C20.4691 9.11265 19.2685 7.91205 17.7878 7.91205Z" fill="#FF0033"/>
<path d="M14.3563 19.4379V18.2574C14.3463 16.3564 15.8971 14.8056 17.798 14.8056C19.699 14.8056 21.2498 16.3564 21.2498 18.2574V19.4279H21.2398L14.3563 19.4379Z" fill="#FFB81E"/>
<path d="M17.7978 15.5459C19.2885 15.5459 20.4991 16.7565 20.4991 18.2472V18.6775H15.0864V18.2472C15.0864 16.7565 16.297 15.5459 17.7878 15.5459M17.7978 14.0451C15.4766 14.0451 13.5957 15.9261 13.5957 18.2472V19.4178C13.5957 19.838 13.9358 20.1782 14.3561 20.1782H21.2395C21.6597 20.1782 21.9999 19.838 21.9999 19.4178V18.2472C21.9999 15.9261 20.1189 14.0451 17.7978 14.0451Z" fill="#FF0033"/>
<path d="M12.0749 10.3133C10.5441 10.3133 9.29352 9.06264 9.29352 7.53188C9.29352 6.00111 10.5441 4.75049 12.0749 4.75049C13.6057 4.75049 14.8563 6.00111 14.8563 7.53188C14.8563 9.06264 13.6057 10.3133 12.0749 10.3133Z" fill="#FFB81E"/>
<path d="M12.0749 5.50084C13.1955 5.50084 14.1059 6.4113 14.1059 7.53186C14.1059 8.65242 13.1955 9.56287 12.0749 9.56287C10.9544 9.56287 10.0439 8.65242 10.0439 7.53186C10.0439 6.4113 10.9544 5.50084 12.0749 5.50084ZM12.0749 4.00009C10.1239 4.00009 8.54315 5.58088 8.54315 7.53186C8.54315 9.48283 10.1239 11.0636 12.0749 11.0636C14.0259 11.0636 15.6067 9.48283 15.6067 7.53186C15.6067 5.58088 14.0259 4.00009 12.0749 4.00009Z" fill="#FF0033"/>
<path d="M7.54267 19.4378C7.4026 19.4378 7.29254 19.3278 7.29254 19.1877V17.6469C7.29254 15.0056 9.44362 12.8545 12.0849 12.8545C14.7263 12.8545 16.8773 15.0056 16.8773 17.6469V19.1877C16.8773 19.3278 16.7673 19.4378 16.6272 19.4378H7.54267Z" fill="#FFB81E"/>
<path d="M12.0849 13.5949C14.316 13.5949 16.1269 15.4058 16.1269 17.6369V18.6874H8.0429V17.6369C8.0429 15.4058 9.8538 13.5949 12.0849 13.5949ZM12.0849 12.0941C9.02339 12.0941 6.54214 14.5754 6.54214 17.6369V19.1777C6.54214 19.728 6.99237 20.1782 7.54264 20.1782H16.6272C17.1775 20.1782 17.6277 19.728 17.6277 19.1777V17.6369C17.6277 14.5754 15.1464 12.0941 12.0849 12.0941Z" fill="#FF0033"/>
</g>
<defs>
<clipPath id="clip0_0_543">
<rect width="20" height="16.1881" fill="white" transform="translate(2 4)"/>
</clipPath>
</defs>
</svg>
