<svg width="24" height="24" viewBox="0 0 24 24" fill="none" xmlns="http://www.w3.org/2000/svg">
<g clip-path="url(#clip0_0_570)">
<path d="M14.925 4.72504H4.745C3.64043 4.72504 2.745 5.62047 2.745 6.72504V19.575C2.745 20.6796 3.64043 21.575 4.745 21.575H14.925C16.0296 21.575 16.925 20.6796 16.925 19.575V6.72504C16.925 5.62047 16.0296 4.72504 14.925 4.72504Z" fill="#FFB81E" stroke="#FF0033" stroke-width="1.5" stroke-miterlimit="10"/>
<path d="M12.545 3.80501H11.665C11.455 2.98501 10.715 2.38501 9.83499 2.38501C8.95499 2.38501 8.21499 2.98501 8.00499 3.80501H7.12499C6.90499 3.80501 6.73499 3.98501 6.73499 4.19501V6.07501C6.73499 6.29501 6.91499 6.46501 7.12499 6.46501H12.555C12.775 6.46501 12.945 6.28501 12.945 6.07501V4.19501C12.945 3.97501 12.765 3.80501 12.555 3.80501H12.545Z" fill="#FFB81E" stroke="#FF0033" stroke-width="1.5" stroke-miterlimit="10"/>
<path d="M8.27499 9.72504H14.705" stroke="#FF0033" stroke-miterlimit="10" stroke-linecap="round"/>
<path d="M8.27499 13.325H14.705" stroke="#FF0033" stroke-miterlimit="10" stroke-linecap="round"/>
<path d="M8.27499 16.925H14.705" stroke="#FF0033" stroke-miterlimit="10" stroke-linecap="round"/>
<path d="M6.22501 8.51501H5.22501C4.94886 8.51501 4.72501 8.73887 4.72501 9.01501V10.015C4.72501 10.2912 4.94886 10.515 5.22501 10.515H6.22501C6.50115 10.515 6.72501 10.2912 6.72501 10.015V9.01501C6.72501 8.73887 6.50115 8.51501 6.22501 8.51501Z" fill="#FF0033"/>
<path d="M6.22501 12.145H5.22501C4.94886 12.145 4.72501 12.3689 4.72501 12.645V13.645C4.72501 13.9212 4.94886 14.145 5.22501 14.145H6.22501C6.50115 14.145 6.72501 13.9212 6.72501 13.645V12.645C6.72501 12.3689 6.50115 12.145 6.22501 12.145Z" fill="#FF0033"/>
<path d="M6.22501 15.925H5.22501C4.94886 15.925 4.72501 16.1488 4.72501 16.425V17.425C4.72501 17.7011 4.94886 17.925 5.22501 17.925H6.22501C6.50115 17.925 6.72501 17.7011 6.72501 17.425V16.425C6.72501 16.1488 6.50115 15.925 6.22501 15.925Z" fill="#FF0033"/>
<path d="M15.845 16.205L21.255 21.615" stroke="#FF0033" stroke-width="1.5" stroke-miterlimit="10" stroke-linecap="round"/>
<path d="M15.795 20.295C18.1367 20.295 20.035 18.3967 20.035 16.055C20.035 13.7133 18.1367 11.815 15.795 11.815C13.4533 11.815 11.555 13.7133 11.555 16.055C11.555 18.3967 13.4533 20.295 15.795 20.295Z" fill="#FFB81E" stroke="#FF0033" stroke-width="1.5" stroke-miterlimit="10"/>
</g>
<defs>
<clipPath id="clip0_0_570">
<rect width="20.01" height="20.73" fill="white" transform="translate(1.995 1.63501)"/>
</clipPath>
</defs>
</svg>
