<svg width="24" height="24" viewBox="0 0 24 24" fill="none" xmlns="http://www.w3.org/2000/svg">
<g clip-path="url(#clip0_0_561)">
<path d="M7.491 12.2249C9.01283 12.2249 10.2465 10.9942 10.2465 9.47623C10.2465 7.9582 9.01283 6.7276 7.491 6.7276C5.96917 6.7276 4.73549 7.9582 4.73549 9.47623C4.73549 10.9942 5.96917 12.2249 7.491 12.2249Z" fill="#FFB81E"/>
<path d="M7.49101 7.47722C8.59321 7.47722 9.49502 8.37677 9.49502 9.47622C9.49502 10.5757 8.59321 11.4752 7.49101 11.4752C6.3888 11.4752 5.487 10.5757 5.487 9.47622C5.487 8.37677 6.3888 7.47722 7.49101 7.47722ZM7.49101 5.97797C5.55714 5.97797 3.98399 7.54718 3.98399 9.47622C3.98399 11.4053 5.55714 12.9745 7.49101 12.9745C9.42488 12.9745 10.998 11.4053 10.998 9.47622C10.998 7.54718 9.42488 5.97797 7.49101 5.97797Z" fill="#FF0033"/>
<path d="M3.00203 21.2503C2.86175 21.2503 2.75153 21.1404 2.75153 21.0004V19.4712C2.75153 16.8525 4.88579 14.7336 7.51104 14.7336C10.1363 14.7336 12.2605 16.8625 12.2605 19.4712V21.0004C12.2605 21.1404 12.1503 21.2503 12.01 21.2503H3.00203Z" fill="#FFB81E"/>
<path d="M7.50102 15.4832C9.70543 15.4832 11.499 17.2723 11.499 19.4712V20.4907H3.50302V19.4712C3.50302 17.2723 5.29661 15.4832 7.50102 15.4832ZM7.50102 13.9839C4.46495 13.9839 2.00002 16.4427 2.00002 19.4712V21.0004C2.00002 21.5502 2.45092 21.9999 3.00202 21.9999H12.0201C12.5712 21.9999 13.0221 21.5502 13.0221 21.0004V19.4712C13.0221 16.4427 10.5571 13.9839 7.52106 13.9839H7.50102Z" fill="#FF0033"/>
<path d="M20.7575 2.74957H13.513C13.2425 2.74957 13.012 2.96946 13.012 3.24932V12.6446C13.012 13.0944 13.5531 13.3143 13.8637 12.9845L16.8096 9.93598C16.8998 9.83603 17.0301 9.78605 17.1704 9.78605H20.7575C21.0281 9.78605 21.2585 9.56616 21.2585 9.2863V3.24932C21.2585 2.97946 21.0381 2.74957 20.7575 2.74957Z" fill="#FFB81E" stroke="#FF0033" stroke-width="1.50301" stroke-miterlimit="10"/>
</g>
<defs>
<clipPath id="clip0_0_561">
<rect width="20" height="20" fill="white" transform="translate(2 2)"/>
</clipPath>
</defs>
</svg>
