<svg width="24" height="24" viewBox="0 0 24 24" fill="none" xmlns="http://www.w3.org/2000/svg">
<g clip-path="url(#clip0_0_552)">
<path d="M18.4253 9.32111V15.6506L12.238 17.7738L6.05066 15.6506V9.32111" fill="#FFB81E"/>
<path d="M18.4253 9.32111V15.6506L12.238 17.7738L6.05066 15.6506V9.32111" stroke="#FF0033" stroke-width="1.51899" stroke-miterlimit="10"/>
<path d="M12.5721 2.82139L20.8861 7.0277C21.3418 7.25804 21.3316 7.899 20.8861 8.11933L12.5721 12.1454C12.4 12.2255 12.2076 12.2255 12.0354 12.1454L3.34683 8.11933C2.881 7.899 2.87088 7.24803 3.34683 7.01768L12.0152 2.81137C12.1873 2.73125 12.3899 2.73125 12.5721 2.81137V2.82139Z" fill="#FFB81E" stroke="#FF0033" stroke-width="1.51899" stroke-miterlimit="10"/>
<path d="M21.2405 7.42828V19.7768" stroke="#FF0033" stroke-width="1.51899" stroke-miterlimit="10" stroke-linecap="round"/>
<path d="M6.55699 21.249C8.65427 21.249 10.3545 19.5675 10.3545 17.4934C10.3545 15.4192 8.65427 13.7377 6.55699 13.7377C4.45971 13.7377 2.75952 15.4192 2.75952 17.4934C2.75952 19.5675 4.45971 21.249 6.55699 21.249Z" fill="#FFB81E" stroke="#FF0033" stroke-width="1.51899" stroke-miterlimit="10"/>
<path d="M6.21265 15.6506V17.8239C6.21265 18.1115 6.4484 18.3447 6.73923 18.3447H6.76961C7.06043 18.3447 7.29619 18.1115 7.29619 17.8239V15.6506C7.29619 15.363 7.06043 15.1298 6.76961 15.1298H6.73923C6.4484 15.1298 6.21265 15.363 6.21265 15.6506Z" fill="#FF0033"/>
<path d="M6.37226 17.4796L5.47719 18.3648C5.26363 18.576 5.26203 18.9169 5.47361 19.1261C5.68518 19.3354 6.02982 19.3338 6.24337 19.1226L7.13844 18.2374C7.35199 18.0262 7.35359 17.6853 7.14202 17.4761C6.93044 17.2668 6.58581 17.2684 6.37226 17.4796Z" fill="#FF0033"/>
</g>
<defs>
<clipPath id="clip0_0_552">
<rect width="20" height="20" fill="white" transform="translate(2 2.00006)"/>
</clipPath>
</defs>
</svg>


